<?xml version="1.0" standalone="no"?>
<!DOCTYPE svg PUBLIC "-//W3C//DTD SVG 20010904//EN"
 "http://www.w3.org/TR/2001/REC-SVG-20010904/DTD/svg10.dtd">
<svg version="1.0" xmlns="http://www.w3.org/2000/svg"
 width="929.000000pt" height="929.000000pt" viewBox="0 0 929.000000 929.000000"
 preserveAspectRatio="xMidYMid meet">
<metadata>
Created by potrace 1.11, written by Peter Selinger 2001-2013
</metadata>
<g transform="translate(0.000000,929.000000) scale(0.100000,-0.100000)"
fill="#000000" stroke="none">
<path d="M2857 8569 c-128 -31 -232 -138 -297 -305 -40 -103 -77 -319 -95
-546 -3 -38 -7 -98 -10 -135 -3 -38 -7 -86 -10 -108 -3 -22 -7 -71 -10 -110
-4 -38 -8 -81 -10 -95 -8 -58 -18 -116 -22 -135 -2 -11 -6 -31 -9 -44 -10 -46
-33 -90 -54 -101 -40 -22 -181 -6 -350 39 -85 23 -225 67 -255 81 -11 4 -45
17 -75 28 -116 42 -354 148 -575 258 -136 67 -248 116 -274 120 -86 12 -179
-50 -205 -137 -13 -43 -15 -235 -3 -304 3 -16 9 -55 12 -85 27 -232 132 -602
243 -860 121 -282 224 -469 395 -715 l70 -100 -17 -65 c-32 -131 -39 -201 -33
-364 5 -149 9 -200 22 -266 3 -14 7 -41 10 -60 11 -68 67 -276 107 -400 135
-420 320 -752 539 -969 l62 -62 -11 -57 c-6 -31 -14 -72 -17 -89 -3 -18 -7
-48 -10 -65 -48 -290 -216 -1044 -326 -1461 -11 -42 -5 -38 -159 -92 -58 -20
-114 -40 -125 -45 -11 -4 -49 -18 -85 -30 -36 -12 -78 -27 -95 -35 -16 -7 -97
-41 -178 -74 -81 -34 -189 -81 -240 -105 -51 -23 -95 -44 -99 -45 -11 -3 -291
-147 -388 -199 -175 -93 -204 -126 -209 -239 -4 -94 63 -180 160 -203 66 -16
96 -8 239 68 386 205 701 345 1091 487 184 67 300 102 514 155 88 21 279 69
425 105 146 36 272 68 280 70 52 12 157 37 170 41 18 5 255 53 290 59 14 2 43
6 65 9 22 4 117 17 210 30 94 14 193 27 220 30 94 11 140 15 205 21 36 3 79 8
95 10 17 2 75 7 130 10 55 4 120 8 145 10 387 30 1205 20 1630 -20 25 -2 77
-7 115 -10 85 -7 116 -10 275 -31 69 -8 143 -18 165 -20 22 -3 51 -7 65 -10
14 -2 66 -11 115 -19 50 -8 101 -16 115 -19 14 -2 47 -7 74 -11 27 -3 53 -8
57 -11 4 -2 20 -6 36 -8 15 -3 39 -7 53 -10 22 -5 140 -29 195 -40 11 -2 67
-16 125 -31 58 -15 113 -28 123 -30 10 -2 32 -9 50 -14 18 -6 87 -27 155 -46
189 -55 478 -157 600 -211 155 -69 396 -197 422 -224 3 -3 37 -27 75 -52 39
-26 86 -63 106 -82 52 -50 103 -76 157 -80 87 -6 168 39 209 118 23 44 21 134
-4 183 -56 109 -442 366 -760 506 -275 120 -690 258 -973 322 -3 1 -25 7 -50
14 -25 7 -126 30 -225 51 -207 45 -202 43 -360 70 -66 12 -131 23 -145 25 -33
6 -212 32 -275 40 -27 4 -65 8 -82 11 -151 20 -204 25 -403 40 -47 3 -86 7
-88 8 -2 3 -8 61 -17 186 -7 92 -13 161 -21 220 -3 25 -7 65 -10 90 -4 42 -8
75 -19 145 -3 17 -7 46 -10 65 -2 19 -7 45 -9 56 -2 12 -7 39 -10 60 -33 207
-90 385 -211 664 -184 422 -215 526 -210 706 5 182 71 322 294 619 111 149
405 513 476 591 5 6 60 70 120 143 l110 131 145 61 c80 34 159 67 175 74 43
18 249 105 538 225 l248 104 82 -27 c361 -116 623 -86 785 88 63 68 116 165
133 246 31 144 -29 344 -137 460 -19 20 -25 40 -29 95 -15 197 -92 332 -243
423 -135 81 -328 104 -461 53 -116 -45 -228 -142 -314 -272 -45 -69 -117 -209
-117 -229 0 -10 39 6 -875 -349 l-720 -280 -60 9 c-33 5 -77 11 -98 14 -47 6
-208 45 -222 53 -5 4 -14 7 -20 8 -5 1 -41 16 -80 35 -84 39 -156 107 -271
254 -81 105 -205 271 -364 490 -298 411 -587 790 -699 918 -271 309 -452 458
-636 522 -67 24 -183 30 -248 14z m153 -404 c129 -67 319 -255 556 -550 73
-91 426 -562 484 -645 14 -19 28 -39 33 -45 32 -39 246 -340 243 -342 -2 -2
-34 -6 -72 -8 -93 -7 -231 -41 -330 -81 -226 -91 -336 -166 -536 -366 -87 -86
-177 -169 -202 -183 -56 -33 -139 -42 -330 -39 -614 10 -744 2 -954 -61 -94
-29 -231 -97 -292 -145 -21 -16 -40 -30 -43 -30 -5 0 -75 104 -124 185 -195
323 -352 734 -417 1092 l-5 32 97 -45 c53 -25 131 -59 172 -76 41 -16 93 -38
115 -48 97 -43 345 -128 475 -164 152 -41 305 -64 411 -60 108 3 128 7 207 36
68 25 172 124 215 204 31 59 84 223 92 287 2 23 7 51 9 62 2 11 7 49 11 85 3
36 8 76 10 90 2 14 6 57 10 95 20 242 25 298 31 360 21 223 60 375 96 375 5 0
22 -7 38 -15z m4806 -1174 c65 -30 71 -58 49 -236 -4 -38 33 -101 99 -168 86
-85 106 -129 81 -176 -8 -17 -30 -38 -47 -47 -65 -34 -277 3 -428 74 -109 51
-97 54 -720 -207 -305 -128 -631 -266 -725 -306 -93 -39 -219 -93 -280 -118
-60 -25 -321 -134 -580 -242 -258 -108 -524 -219 -590 -247 -66 -28 -133 -56
-150 -63 -16 -8 -97 -42 -179 -76 -163 -68 -201 -95 -245 -172 -37 -67 -50
-108 -55 -179 -18 -235 180 -447 494 -531 19 -5 -51 -42 -100 -52 -19 -4 -84
-7 -145 -5 -393 10 -447 5 -565 -53 -103 -50 -149 -92 -465 -422 -311 -325
-487 -453 -651 -471 -294 -34 -639 402 -838 1058 -20 65 -38 128 -40 140 -2
13 -11 53 -20 89 -84 352 -46 634 102 770 30 28 71 58 91 68 52 26 156 58 226
70 134 22 123 22 720 18 278 -2 391 16 511 79 75 39 106 65 284 239 91 88 190
176 220 196 101 66 251 128 350 144 l44 7 -63 -68 c-185 -202 -218 -426 -86
-582 86 -103 278 -168 361 -124 10 6 66 28 124 50 58 22 180 70 272 106 190
74 713 277 928 359 80 31 262 102 405 158 143 55 321 125 395 153 542 211 770
301 802 317 47 24 81 69 103 139 46 142 133 280 201 315 38 19 60 19 110 -4z
m-2943 -966 c20 -9 37 -20 37 -24 0 -4 -248 -102 -404 -160 -35 -13 140 141
233 205 45 31 47 31 71 14 14 -9 42 -25 63 -35z m619 -847 c-124 -153 -356
-478 -410 -574 -7 -13 -14 -12 -47 10 -21 14 -45 27 -54 27 -9 1 -38 3 -66 4
-176 12 -296 35 -367 71 -52 26 -100 66 -91 74 4 5 188 83 408 175 220 91 409
170 420 175 28 13 259 109 263 110 2 0 -23 -33 -56 -72z m-547 -1178 c15 -226
74 -404 288 -871 39 -84 78 -194 93 -264 1 -5 6 -28 12 -50 6 -22 13 -51 16
-65 35 -186 39 -207 51 -305 4 -27 8 -61 10 -75 7 -43 21 -184 30 -305 3 -44
8 -90 11 -102 2 -12 -1 -25 -7 -29 -6 -4 -73 -5 -148 -4 -75 2 -260 2 -412 2
l-277 -1 -7 42 c-10 53 -7 40 -54 246 -40 176 -55 211 -119 283 -54 60 -183
140 -278 172 -78 26 -92 28 -204 31 -279 9 -530 -112 -701 -338 -107 -142
-196 -320 -255 -513 -15 -49 -30 -92 -33 -96 -6 -7 -51 -17 -146 -34 -16 -3
-102 -21 -190 -40 -88 -20 -171 -38 -185 -40 -14 -3 -93 -23 -177 -44 -83 -22
-157 -40 -163 -40 -8 0 -10 9 -5 28 4 15 15 61 25 102 10 41 34 143 53 225 20
83 38 161 41 175 3 14 7 34 10 45 13 57 25 113 30 135 2 14 14 69 26 124 12
54 24 108 26 120 9 43 74 395 74 399 0 2 30 -2 68 -9 202 -40 416 14 636 160
152 101 284 225 617 576 97 102 163 164 196 181 l48 27 260 -4 c304 -4 348 2
493 73 66 32 113 64 165 113 39 37 73 67 74 66 1 -1 5 -44 8 -96z m-875 -1728
c56 -28 74 -52 84 -107 3 -17 8 -39 10 -50 3 -11 11 -49 19 -85 8 -36 18 -77
22 -92 4 -16 3 -28 -1 -29 -40 -2 -119 -9 -169 -13 -33 -4 -87 -8 -120 -11
-33 -3 -73 -7 -90 -10 -16 -2 -66 -7 -110 -11 -44 -3 -87 -8 -96 -9 -9 -2 -40
-6 -70 -10 -30 -4 -73 -10 -96 -15 -27 -4 -43 -4 -43 2 0 21 82 183 125 248
54 81 133 155 193 182 61 28 168 47 232 42 33 -3 77 -15 110 -32z"/>
<path d="M3607 5444 c-59 -21 -90 -58 -100 -123 -4 -25 15 -94 79 -280 76
-224 87 -249 121 -278 34 -31 55 -37 113 -35 26 1 67 19 86 37 22 21 44 75 44
108 0 34 -136 444 -169 506 -18 35 -71 71 -114 75 -12 2 -39 -3 -60 -10z"/>
<path d="M2862 5160 c-65 -29 -102 -107 -83 -173 34 -118 164 -473 178 -490
91 -100 263 -38 263 96 0 33 -135 442 -167 505 -33 65 -120 94 -191 62z"/>
<path d="M2945 4245 c-71 -25 -125 -107 -125 -190 0 -43 39 -114 80 -147 105
-83 266 -29 304 101 26 91 -16 183 -104 229 -50 25 -97 27 -155 7z"/>
<path d="M2774 3861 c-32 -11 -58 -29 -78 -54 -27 -34 -31 -47 -31 -100 0 -52
4 -68 28 -99 46 -60 129 -83 198 -54 150 63 123 287 -38 317 -19 3 -52 -1 -79
-10z"/>
</g>
</svg>
